<svg xmlns="http://www.w3.org/2000/svg" xmlns:svg="http://www.w3.org/2000/svg" viewBox="26.6 11.76 353.29 117.6">
 <g class="layer">
  <title>Layer 1</title>
  <line fill="none" id="svg_5" stroke="#1db954" stroke-width="9" x1="118.199019" x2="133.199019" y1="70.445434" y2="70.445434"/>
  <g xmlns="http://www.w3.org/2000/svg" class="layer" fill="#1db954" id="svg_1">
   <path d="m-103.134766,-129.631666l0.458553,-205.048415c0.050024,-21.635384 23.49461,-35.10018 42.203589,-24.24497l177.351788,102.9244c18.70898,10.838535 18.642281,37.893187 -0.108385,48.673361l-177.810342,102.124015c-18.750666,10.771837 -42.145228,-2.793007 -42.095204,-24.428391z" id="svg_2" transform="translate(321 175) scale(0.45 0.45)"/>
  </g>
  <g xmlns="http://www.w3.org/2000/svg" fill="#ffffff" id="icon-svg">
   <path d="m-116.119549,-471.716291c-6.185574,2.450937 -11.712662,7.578729 -14.749407,13.682869c-4.844958,9.736325 -3.03587,22.369292 4.30731,30.080244c1.796829,1.88702 3.152331,4.384367 3.527108,6.49818c0.375653,2.119943 1.587549,4.348466 3.167217,5.823932c2.317839,2.165476 2.559518,2.924663 2.559518,8.049828c0,4.946533 0.290715,5.949149 2.308207,7.967517c2.071782,2.070906 2.964067,2.308207 8.678543,2.308207c6.038465,0 6.488548,-0.140104 8.637387,-2.694367c1.889647,-2.24516 2.267051,-3.571766 2.267051,-7.967517c0,-4.729372 0.270575,-5.525336 2.626943,-7.726714c1.929927,-1.802958 2.626943,-3.249528 2.626943,-5.452657c0,-2.121694 0.676,-3.619051 2.312585,-5.121662c3.898383,-3.578772 7.239854,-9.607605 8.294134,-14.967443l1.004368,-5.105901l24.404297,0l24.404297,0l0,2.626943l0,2.626943l-18.281769,0c-14.396521,0 -18.491925,0.254813 -19.274754,1.197886c-0.711026,0.856383 -0.929062,10.156636 -0.76444,32.617871l0.230295,31.419985l45.914579,0.226793c36.151984,0.178632 46.064315,-0.007881 46.615097,-0.875648c1.069166,-1.684746 0.900166,-60.875017 -0.179508,-62.893385c-0.852005,-1.591927 -2.010487,-1.693502 -19.264246,-1.693502l-18.357951,0l0,-2.674228l0,-2.674228l19.195945,0.266197c18.939381,0.262694 19.225717,0.294218 21.453365,2.388766l2.257419,2.123445l0,35.748311l0,35.749187l-73.554394,0l-73.554394,0l0,-12.314231l0,-12.315107l-2.845855,0.274953l-2.845855,0.274078l0,21.015541c0,20.538313 0.046409,21.090847 2.058647,24.326364c4.003461,6.440388 5.579626,6.759123 33.370052,6.759123l24.553157,0l0,7.759113l0,7.758237l-4.488569,0.532394c-8.167165,0.966715 -11.287097,4.517466 -11.935076,13.582169c-0.681254,9.514786 -3.18473,8.896579 36.012757,8.896579c24.86839,0 33.745705,-0.270575 34.525907,-1.050777c1.585798,-1.585798 1.312596,-11.706532 -0.415057,-15.346599c-1.707513,-3.59716 -6.804657,-6.320424 -11.887791,-6.350196l-3.283678,-0.019264l0,-7.843175l0,-7.844051l25.769432,-0.255689c24.446328,-0.24343 25.892898,-0.349383 28.185343,-2.06215c1.329233,-0.992984 3.228512,-2.893139 4.221497,-4.222372c1.760927,-2.358119 1.811715,-3.527108 2.047264,-47.508257c0.319611,-59.556292 2.716259,-54.903977 -28.481312,-55.30765l-20.358805,-0.264446l0,-5.646175l0,-5.647051l7.937745,0c7.699569,0 8.001667,0.077057 10.093589,2.562145c2.746906,3.26529 6.394854,4.112917 9.899195,2.300326c7.743351,-4.004336 4.958792,-15.370241 -3.76616,-15.370241c-2.562145,0 -3.883497,0.600694 -5.775771,2.626943c-2.449186,2.621689 -2.473704,2.626943 -12.435071,2.626943c-6.596253,0 -10.337895,0.356389 -11.032283,1.050777c-0.648855,0.648855 -1.050777,3.833585 -1.050777,8.318652l0,7.267875l-2.593668,0l-2.594544,0l-0.251311,-8.09974l-0.252186,-8.09974l-10.806366,-0.246933c-10.781848,-0.245181 -10.81162,-0.252186 -12.993734,-2.845855c-4.343212,-5.161942 -12.872019,-2.442181 -13.969205,4.454419c-0.985979,6.199585 6.194331,11.240688 11.847511,8.3169c1.465834,-0.758311 3.092787,-2.17686 3.614673,-3.152331c0.86514,-1.61557 1.671611,-1.752171 9.001657,-1.523627l8.051579,0.251311l0.260943,5.472797l0.260067,5.472797l-24.792209,0l-24.792209,0l-1.505238,-4.239885c-1.982466,-5.581377 -7.669797,-11.923693 -13.24592,-14.771298c-6.188201,-3.160212 -15.741516,-3.640067 -22.124111,-1.109445m2.47458,5.148808c-8.849294,3.05601 -14.170604,10.601465 -14.170604,20.092609c0,6.840559 1.66986,10.891304 6.554222,15.894754c3.034119,3.108549 3.903637,4.67946 4.119046,7.443004c0.267948,3.444797 0.333622,3.506968 3.993828,3.771414l3.721502,0.269699l0,-3.923777c0,-3.191735 -0.489487,-4.413264 -2.626943,-6.549844c-3.602414,-3.602414 -3.627808,-8.02531 -0.067425,-11.585693c2.857238,-2.857238 5.817802,-3.253031 9.619864,-1.287202c4.936901,2.552513 5.600642,9.048066 1.357254,13.291454c-1.642715,1.642715 -2.153217,3.077901 -2.153217,6.053351l0,3.90101l3.408896,0c3.702238,0 4.471932,-0.921181 4.471932,-5.351958c0,-1.876513 0.876523,-3.351979 3.203119,-5.394865c12.567294,-11.034035 8.006045,-32.23784 -7.959636,-37.001363c-5.5446,-1.654098 -7.770496,-1.591927 -13.471837,0.377404m57.765593,-0.890534c-1.727653,1.094559 -0.853756,3.998207 1.296834,4.306435c2.195248,0.314357 3.439544,-2.120818 1.980715,-3.879119c-1.154103,-1.390528 -1.654974,-1.456202 -3.277549,-0.427316m65.673566,0c-1.727653,1.094559 -0.853756,3.998207 1.296834,4.306435c2.195248,0.314357 3.439544,-2.120818 1.980715,-3.879119c-1.154103,-1.390528 -1.654974,-1.456202 -3.277549,-0.427316m-118.596828,10.2766c-0.343254,0.343254 -0.624337,2.330974 -0.624337,4.418518c0,3.763533 0.025394,3.794181 3.112927,3.794181l3.112927,0l-0.267073,-4.159326c-0.239052,-3.717124 -0.503497,-4.186471 -2.48859,-4.418518c-1.222404,-0.142731 -2.503476,0.021891 -2.845855,0.365145m-11.601454,5.620782c-1.584046,1.749544 -1.559528,1.842362 1.174243,4.576134l2.789813,2.790689l1.934305,-1.934305l1.934305,-1.93343l-2.532373,-2.642704c-3.00172,-3.133067 -3.209248,-3.167217 -5.300295,-0.856383m22.783473,0.856383l-2.532373,2.642704l1.934305,1.93343l1.934305,1.934305l2.789813,-2.790689c2.733772,-2.733772 2.75829,-2.82659 1.174243,-4.576134c-2.091046,-2.310834 -2.298575,-2.276684 -5.300295,0.856383m73.131456,6.989419c0,2.335352 0.291591,2.626943 2.626943,2.626943c2.335352,0 2.626943,-0.291591 2.626943,-2.626943c0,-2.335352 -0.291591,-2.626943 -2.626943,-2.626943c-2.335352,0 -2.626943,0.291591 -2.626943,2.626943m-84.369516,7.41761c-0.639223,1.668109 1.729404,4.036735 3.397512,3.397512c0.708399,-0.272326 1.288078,-1.437813 1.288078,-2.590165c0,-1.626077 -0.469347,-2.095425 -2.095425,-2.095425c-1.152352,0 -2.317839,0.579679 -2.590165,1.288078m46.716672,9.219693l0,7.880828l40.717611,0l40.717611,0l0,-7.880828l0,-7.880828l-40.717611,0l-40.717611,0l0,7.880828m48.160615,0c0,2.418539 0.24343,2.626943 3.064766,2.626943c2.821336,0 3.064766,-0.208404 3.064766,-2.626943c0,-2.418539 -0.24343,-2.626943 -3.064766,-2.626943c-2.821336,0 -3.064766,0.208404 -3.064766,2.626943m11.383418,0c0,2.418539 0.24343,2.626943 3.064766,2.626943c2.821336,0 3.064766,-0.208404 3.064766,-2.626943c0,-2.418539 -0.24343,-2.626943 -3.064766,-2.626943c-2.821336,0 -3.064766,0.208404 -3.064766,2.626943m10.507771,0c0,2.418539 0.24343,2.626943 3.064766,2.626943c2.821336,0 3.064766,-0.208404 3.064766,-2.626943c0,-2.418539 -0.24343,-2.626943 -3.064766,-2.626943c-2.821336,0 -3.064766,0.208404 -3.064766,2.626943m-119.963713,18.281769c0,5.229367 1.246046,6.433382 6.283647,6.070864l3.7863,-0.272326l0.262694,-5.034973l0.262694,-5.034973l-5.297668,0l-5.297668,0l0,4.271409m49.91191,11.928071l0,16.19948l40.717611,0l40.717611,0l0,-16.19948l0,-16.19948l-40.717611,0l-40.717611,0l0,16.19948m21.154769,-7.081362c-2.966694,3.089285 -5.393113,6.153175 -5.393113,6.809911c0,0.656736 2.680357,3.853725 5.955279,7.104129l5.956155,5.909745l1.91329,-2.037632l1.914166,-2.036756l-4.369481,-4.303808l-4.369481,-4.303808l4.541984,-4.598901c4.4623,-4.518341 4.513963,-4.630424 2.931668,-6.379092c-0.88528,-0.978974 -2.077912,-1.779316 -2.648834,-1.779316c-0.571798,0 -3.465813,2.527119 -6.431631,5.615528m30.04697,-3.837963c-1.579668,1.746041 -1.531508,1.858124 2.676855,6.129533l4.286295,4.351968l-4.126927,4.189098c-2.268803,2.304704 -4.126051,4.607657 -4.126051,5.11816c0,0.511378 0.801218,1.654098 1.781067,2.540254c1.751295,1.584922 1.867756,1.526254 7.068227,-3.585777c7.9789,-7.841424 7.942123,-7.365947 1.126083,-14.425418c-3.236393,-3.352854 -6.153175,-6.095383 -6.480667,-6.095383c-0.328368,0 -1.320476,0.800342 -2.204881,1.777565m-13.285325,9.930719l-5.39574,10.832636l2.168979,0.988606c1.193508,0.543777 2.344984,0.988606 2.559518,0.988606c0.214534,0 2.797694,-4.802927 5.740745,-10.673268c5.006077,-9.98676 5.248631,-10.746822 3.779295,-11.821242c-0.863388,-0.631342 -1.994725,-1.147974 -2.513984,-1.147974c-0.518383,0 -3.371243,4.87473 -6.338813,10.832636m-93.082209,38.699243c0,5.025341 1.013124,7.912351 3.426409,9.765221c1.064787,0.816979 17.529588,1.073544 70.386301,1.094559l68.997524,0.028021l2.148839,-2.149715c1.844989,-1.844114 2.149715,-2.962316 2.149715,-7.880828l0,-5.731113l-73.554394,0l-73.554394,0l0,4.873854m125.217599,3.006974c0,2.418539 0.24343,2.626943 3.064766,2.626943c2.821336,0 3.064766,-0.208404 3.064766,-2.626943c0,-2.418539 -0.24343,-2.626943 -3.064766,-2.626943c-2.821336,0 -3.064766,0.208404 -3.064766,2.626943m11.383418,0c0,2.418539 0.24343,2.626943 3.064766,2.626943c2.821336,0 3.064766,-0.208404 3.064766,-2.626943c0,-2.418539 -0.24343,-2.626943 -3.064766,-2.626943c-2.821336,0 -3.064766,0.208404 -3.064766,2.626943m-76.181336,21.891189l0,7.880828l13.572537,0l13.572537,0l0,-7.880828l0,-7.880828l-13.572537,0l-13.572537,0l0,7.880828m-14.886008,15.761656c-1.167238,1.167238 -1.751295,2.918533 -1.751295,5.253885l0,3.50259l29.772016,0l29.772016,0l0,-3.804689c0,-6.813414 0.48686,-6.703082 -29.622281,-6.703082c-25.251924,0 -26.496219,0.077057 -28.170457,1.751295" fill-rule="evenodd" id="svg_3" transform="translate(330.75 206.75) scale(0.35 0.35)"/>
  </g>
  <path xmlns="http://www.w3.org/2000/svg" d="m66.108349,49.476001l0,48.255938q0,9.324355 -4.950559,13.746213q-4.950559,4.421859 -14.659423,4.421859l0,0q-5.767642,0 -9.276291,-0.720955q-3.508649,-0.720955 -6.00796,-1.874484l0,0l2.018675,-6.536661q2.210929,0.865146 4.902496,1.634165q2.691566,0.769019 7.017298,0.769019l0,0q4.037349,0 6.584725,-0.720955q2.547375,-0.720955 4.085413,-2.403184q1.538038,-1.682229 2.114802,-4.325732q0.576764,-2.643503 0.576764,-6.296343l0,0l0,-4.614114l-0.384509,0q-1.922547,2.787694 -4.902496,4.277668q-2.979948,1.489974 -7.786317,1.489974l0,0q-9.708864,0 -14.274914,-6.056024q-4.56605,-6.056024 -4.56605,-18.840964l0,0q0,-12.304303 5.863769,-18.696773q5.863769,-6.39247 17.302926,-6.39247l0,0q5.47926,0 9.372418,0.865146q3.893158,0.865146 6.969234,2.018675l0,0zm-19.321601,40.373494l0,0q4.902496,0 7.690189,-2.451248q2.787694,-2.451248 3.941222,-7.642126l0,0l0,-24.608606q-3.845095,-1.82642 -9.804991,-1.82642l0,0q-6.536661,0 -10.285628,4.421859q-3.748967,4.421859 -3.748967,13.842341l0,0q0,4.037349 0.672892,7.401807q0.672892,3.364458 2.114802,5.767642q1.441911,2.403184 3.748967,3.748967q2.307057,1.345783 5.671515,1.345783zm31.433649,-18.360327l0,0q0,-12.208176 5.431196,-18.696773q5.431196,-6.488597 15.620697,-6.488597l0,0q5.383133,0 9.372418,1.778356q3.989286,1.778356 6.584725,5.09475q2.595439,3.316394 3.845095,7.978571q1.249656,4.662177 1.249656,10.333692l0,0q0,12.208176 -5.431196,18.696773q-5.431196,6.488597 -15.620697,6.488597l0,0q-5.383133,0 -9.372418,-1.778356q-3.989286,-1.778356 -6.584725,-5.09475q-2.595439,-3.316394 -3.845095,-7.978571q-1.249656,-4.662177 -1.249656,-10.333692zm7.978571,0l0,0q0,3.65284 0.720955,7.017298q0.720955,3.364458 2.258993,5.863769q1.538038,2.499312 4.037349,4.037349q2.499312,1.538038 6.056024,1.538038l0,0q13.073322,0.096127 13.073322,-18.456454l0,0q0,-3.748967 -0.720955,-7.113425q-0.720955,-3.364458 -2.258993,-5.863769q-1.538038,-2.499312 -4.037349,-3.989286q-2.499312,-1.489974 -6.056024,-1.489974l0,0q-13.073322,-0.096127 -13.073322,18.456454zm43.545697,0l0,0q0,-12.208176 5.431196,-18.696773q5.431196,-6.488597 15.620697,-6.488597l0,0q5.383133,0 9.372418,1.778356q3.989286,1.778356 6.584725,5.09475q2.595439,3.316394 3.845095,7.978571q1.249656,4.662177 1.249656,10.333692l0,0q0,12.208176 -5.431196,18.696773q-5.431196,6.488597 -15.620697,6.488597l0,0q-5.383133,0 -9.372418,-1.778356q-3.989286,-1.778356 -6.584725,-5.09475q-2.595439,-3.316394 -3.845095,-7.978571q-1.249656,-4.662177 -1.249656,-10.333692zm7.978571,0l0,0q0,3.65284 0.720955,7.017298q0.720955,3.364458 2.258993,5.863769q1.538038,2.499312 4.037349,4.037349q2.499312,1.538038 6.056024,1.538038l0,0q13.073322,0.096127 13.073322,-18.456454l0,0q0,-3.748967 -0.720955,-7.113425q-0.720955,-3.364458 -2.258993,-5.863769q-1.538038,-2.499312 -4.037349,-3.989286q-2.499312,-1.489974 -6.056024,-1.489974l0,0q-13.073322,-0.096127 -13.073322,18.456454zm39.79673,-17.302926l0,-6.728916l7.497935,0l0,-2.691566q0,-4.421859 0.720955,-7.690189q0.720955,-3.26833 2.35512,-5.335069q1.634165,-2.066738 4.229604,-3.076076q2.595439,-1.009337 6.440534,-1.009337l0,0q3.076076,0 5.431196,0.384509q2.35512,0.384509 4.950559,1.441911l0,0l-1.730293,6.440534q-2.210929,-0.961274 -4.18154,-1.249656q-1.970611,-0.288382 -3.700904,-0.288382l0,0q-2.499312,0 -3.893158,0.769019q-1.393847,0.769019 -2.018675,2.258993q-0.624828,1.489974 -0.769019,3.65284q-0.144191,2.162866 -0.144191,5.046687l0,0l0,1.345783l12.78494,0l0,6.728916l-12.78494,0l0,41.334768l-7.690189,0l0,-41.334768l-7.497935,0zm38.547074,-6.728916l11.535284,31.145267l2.691566,9.228227l0.480637,0l2.114802,-9.324355l9.324355,-31.04914l7.786317,0l-14.22685,43.161188q-1.634165,4.710241 -3.220267,9.1321q-1.586102,4.421859 -3.508649,7.882444q-1.922547,3.460585 -4.325732,5.527324q-2.403184,2.066738 -5.575387,2.066738l0,0q-3.460585,0 -5.671515,-0.961274l0,0l1.345783,-6.632788q1.249656,0.480637 2.403184,0.480637l0,0q2.691566,0 5.190878,-2.835757q2.499312,-2.835757 4.133477,-9.756928l0,0l-19.321601,-48.063684l8.843718,0z" fill="#1db954" id="svg_4"/>
 </g>
</svg>